<?xml version="1.0" encoding="UTF-8"?>
<svg id="Layer_2" data-name="Layer 2" xmlns="http://www.w3.org/2000/svg" viewBox="0 0 3508.12 1384.49">
  <defs>
    <style>
      .cls-1 {
        fill-rule: evenodd;
      }

      .cls-1, .cls-2 {
        fill: #fff;
        stroke-width: 0px;
      }
    </style>
  </defs>
  <g id="Camada_1" data-name="Camada 1">
    <g>
      <path class="cls-1" d="M635.86,0C284.69,0,0,284.69,0,635.86s284.69,635.86,635.86,635.86c48.39,0,27.39,112.76,27.39,112.76,243.15-27.39,608.47-399.92,608.47-748.62S987.12,0,635.86,0ZM981.73,621.25c.82,16.16-1.64,33.14-7.76,49.95-41.82,114.68-170.29,209-271.18,271.36-2.65,1.28-5.29,2.65-7.94,3.93-17.44,8.31-35.25,13.42-52.96,14.15-18.72.73-37.16-3.56-54.6-14.15-2.1-1.28-4.2-2.56-6.3-3.93-100.89-62.36-229.36-156.68-271.27-271.36-6.12-16.89-8.58-33.88-7.67-50.13-.09-2.47-.18-4.93-.18-7.49,0-104.82,85.01-189.83,189.83-189.83,61.08,0,115.5,28.85,150.2,73.68,34.7-44.83,89.02-73.68,150.11-73.68,104.91,0,189.92,85.01,189.92,189.83,0,2.56-.09,5.11-.18,7.67Z"/>
      <g>
        <path class="cls-2" d="M1680.98,295.54c42.41,0,80.11,32.99,80.11,69.51s-36.52,69.51-80.11,69.51-78.93-31.81-78.93-69.51,36.52-69.51,78.93-69.51ZM1738.71,533.51v530.13h-114.27v-530.13h114.27Z"/>
        <path class="cls-2" d="M2012.02,527.62c75.4,0,141.37,40.05,180.24,100.13v-294.52h115.45v730.41h-115.45v-94.25c-40.05,60.08-106.03,100.14-180.24,100.14-146.08,0-256.82-118.99-256.82-270.96s110.74-270.96,256.82-270.96ZM2030.86,981.18c75.4,0,161.4-62.44,161.4-182.6,0-101.31-69.51-182.6-161.4-182.6s-160.22,82.47-160.22,182.6,71.86,182.6,160.22,182.6Z"/>
        <path class="cls-2" d="M2598.69,527.62c154.33,0,279.2,121.34,279.2,270.96s-124.88,270.96-279.2,270.96-278.03-121.34-278.03-270.96,123.7-270.96,278.03-270.96ZM2434.94,798.58c0,96.6,73.04,175.53,163.75,175.53s163.75-78.93,163.75-175.53-76.57-176.71-163.75-176.71-163.75,78.93-163.75,176.71Z"/>
        <path class="cls-2" d="M2894.37,1063.65V334.42h114.27v729.23h-114.27Z"/>
        <path class="cls-2" d="M3041.6,912.85h124.88c0,38.88,48.3,70.68,108.38,70.68,65.97,0,113.09-31.81,113.09-70.68,0-42.41-41.23-71.86-113.09-71.86-162.57,0-233.26-75.4-233.26-150.79,0-90.71,103.67-162.57,233.26-162.57,142.55,0,233.26,70.68,233.26,156.68h-126.05c0-38.88-48.3-70.69-107.21-70.69-68.33,0-113.1,29.45-113.1,70.69s43.59,71.86,113.1,71.86c149.62,0,233.26,68.33,233.26,150.79,0,87.18-93.07,162.58-233.26,162.58-129.59,0-233.26-70.68-233.26-156.69Z"/>
      </g>
    </g>
  </g>
</svg>